# xmcd
#
# Track frame offsets: 
#        183
#        8760
#        18150
#        55490
#        65838
#        81028
#        88498
#        100085
#        107633
#        113555
#        124680
#        134378
#        141370
#        149145
#        161160
#        167503
#        169583
#
# Disc length: 2374 seconds
#
# Revision: 5
# Processed by: cddbd v1.5.2PL0 Copyright (c) Steve Scherf et al.
# Submitted via: ExactAudioCopy v1.0b3
#
DISCID=ed094411
DTITLE=Ivo Fischer, Jan Hammer ml. - Šíleně smutná princezna
DYEAR=1967
DGENRE=Soundtrack
TTITLE0=Predehra
TTITLE1=Uvod do pohadky
TTITLE2=jedeme na namluvy
TTITLE3=Znam jednu krasnou zahradu
TTITLE4=Situace se komplikuje
TTITLE5=Kujme pikle
TTITLE6=Co nas to jen napadlo...
TTITLE7=Miluju a maluju
TTITLE8=Princezna se vyznava...
TTITLE9=Slza z tvare pada
TTITLE10=Silene smutna princezna...?
TTITLE11=Ja uz to vim
TTITLE12=To se nemelo stat
TTITLE13=Valka neni zadna legrace, ale konec vse napravi
TTITLE14=Znam jednu krasnou princeznu
TTITLE15=neco navic
TTITLE16=Dohra
EXTD=
EXTT0=
EXTT1=
EXTT2=
EXTT3=
EXTT4=
EXTT5=
EXTT6=
EXTT7=
EXTT8=
EXTT9=
EXTT10=
EXTT11=
EXTT12=
EXTT13=
EXTT14=
EXTT15=
EXTT16=
PLAYORDER=
